<?xml version="1.0" encoding="UTF-8" standalone="no" ?>
<!DOCTYPE svg PUBLIC "-//W3C//DTD SVG 1.1//EN" "http://www.w3.org/Graphics/SVG/1.1/DTD/svg11.dtd">
<svg xmlns="http://www.w3.org/2000/svg" xmlns:xlink="http://www.w3.org/1999/xlink" version="1.1" width="1280" height="1024" viewBox="0 0 218 149" xml:space="preserve">
<desc>Created with Fabric.js 3.6.3</desc>
<defs>
</defs>
<g transform="matrix(1.9662058371735787 0 0 1.9662058371735787 640.2456813819576 512.1966205837173)" id="background-logo"  >
<rect style="stroke: none; stroke-width: 1; stroke-dasharray: none; stroke-linecap: butt; stroke-dashoffset: 0; stroke-linejoin: miter; stroke-miterlimit: 4; fill: rgb(255,255,255); fill-rule: nonzero; opacity: 1;"  paint-order="stroke"  x="-325" y="-260" rx="0" ry="0" width="650" height="520" />
</g>
<g transform="matrix(1.9699870022450665 0 0 1.9699870022450665 640.2456813819576 404.01972425309435)" id="logo-logo"  >
<g style=""  paint-order="stroke"   >
		<g transform="matrix(1.4280890343134909 0 0 1.428089034313491 0 0)"  >
<g style=""  paint-order="stroke"   >
		<g transform="matrix(1 0 0 1 0 0)"  >
<linearGradient id="SVGID_488493" gradientUnits="userSpaceOnUse" gradientTransform="matrix(1 0 0 1 0 0)"  x1="0" y1="0" x2="0" y2="196">
<stop offset="0%" style="stop-color:rgb(48,35,174);stop-opacity: 1"/>
<stop offset="100%" style="stop-color:rgb(200,109,215);stop-opacity: 1"/>
</linearGradient>
<path style="stroke: none; stroke-width: 1; stroke-dasharray: none; stroke-linecap: butt; stroke-dashoffset: 0; stroke-linejoin: miter; stroke-miterlimit: 4; fill: url(#SVGID_488493); fill-rule: nonzero; opacity: 1;"  paint-order="stroke"  transform=" translate(-100, -98)" d="M 15.78 125.3 l 0.72 24.22 l 19.27 10.37 L 50 184.51 H 81.55 L 102.91 196 l 18.63 -11.49 H 150 l 15.78 -27.3 l 20.64 -12.73 l -0.65 -21.86 L 200 98 L 184.22 70.7 l -0.72 -24.22 L 164.23 36.12 L 150 11.49 H 118.45 L 97.09 0 L 78.47 11.49 H 50 L 34.22 38.78 L 13.58 51.52 l 0.65 21.85 L 0 98 Z M 198.29 98 l -12.61 21.81 l -1.36 -46 Z M 20.37 147.13 l -0.43 -14.64 L 32 153.39 Z M 50.85 183 l -12.6 -21.81 L 78.81 183 Z m 51.93 8.42 l -12.91 -6.94 H 114 Z M 149.15 183 H 123.93 l 39.19 -24.18 Z m 33.26 -40.71 L 169.93 150 L 182 129.11 Z m -2.78 -93.45 l 0.44 14.64 L 168 42.61 Z M 149.15 13 l 12.61 21.81 L 121.19 13 Z M 97.22 4.55 l 12.91 6.94 H 86 Z M 50.85 13 H 76.07 L 36.88 37.15 Z m 32.73 0 h 29.3 l 52.63 28.3 l 14.65 25.35 l 1.77 59.69 l -14.65 25.35 L 116.43 183 H 87.12 l -52.63 -28.3 L 19.84 129.38 L 18.07 69.69 L 32.72 44.34 Z M 30.06 46 L 18 66.88 l -0.39 -13.2 Z M 14.32 76.18 l 1.36 46 L 1.71 98 Z" stroke-linecap="round" />
</g>
</g>
</g>
		<g transform="matrix(0.992344532794017 0 0 0.992344532794017 -16.264753476259955 54.40711686706024)"  >
<g style=""  paint-order="stroke"   >
</g>
</g>
</g>
</g>
<g transform="matrix(1.9699870022450665 0 0 1.9699870022450665 634.7445311544969 797.4335164567368)" id="text-logo-path"  >
<linearGradient id="SVGID_65_488495" gradientUnits="userSpaceOnUse" gradientTransform="matrix(1 0 0 1 1.7199999999999989 -57.19)"  x1="0" y1="0" x2="0" y2="97">
<stop offset="0%" style="stop-color:rgb(101,121,155);stop-opacity: 1"/>
<stop offset="100%" style="stop-color:rgb(94,37,99);stop-opacity: 1"/>
</linearGradient>
<path style="stroke: none; stroke-width: 1; stroke-dasharray: none; stroke-linecap: butt; stroke-dashoffset: 0; stroke-linejoin: miter; stroke-miterlimit: 10; fill: url(#SVGID_65_488495); fill-rule: nonzero; opacity: 1;"  paint-order="stroke"  transform=" translate(-228.14499999999998, 27.945)" d="M 1.72 -9.91 L 1.72 -9.91 L 1.72 -15.5 L 7.73 -15.5 L 7.73 -9.53 Q 7.73 -3.86 13.23 -3.86 L 13.23 -3.86 Q 18.9 -3.86 18.94 -9.53 L 18.94 -9.53 L 18.94 -50.73 L 7.73 -50.73 L 7.73 -55.89 L 24.94 -55.89 L 24.94 -9.91 Q 24.94 -4.41 21.84 -1.55 Q 18.73 1.3 13.23 1.3 Q 7.73 1.3 4.72 -1.53 Q 1.72 -4.37 1.72 -9.91 Z M 40.4 -10.75 L 40.4 -10.75 L 40.4 -55.89 L 46.44 -55.89 L 46.44 -10.75 Q 46.44 -7.47 47.85 -5.67 Q 49.26 -3.86 53.04 -3.86 Q 56.82 -3.86 60.01 -6.78 Q 63.2 -9.7 63.2 -12.47 L 63.2 -12.47 L 63.2 -55.89 L 69.2 -55.89 L 69.2 0 L 66.64 0 L 64.42 -5.5 Q 62.53 -2.39 59.54 -0.55 Q 56.56 1.3 53.04 1.3 L 53.04 1.3 Q 40.4 1.3 40.4 -10.75 Z M 84.7 -10.75 L 84.7 -10.75 L 84.7 -18.06 L 90.7 -18.06 L 90.7 -10.41 Q 90.7 -7.31 92.87 -5.58 Q 95.03 -3.86 99.23 -3.86 Q 103.43 -3.86 105.59 -5.58 Q 107.75 -7.31 107.75 -10.27 Q 107.75 -13.23 107.1 -14.99 Q 106.45 -16.75 104.48 -18.73 L 104.48 -18.73 L 89.32 -33.55 Q 86.67 -36.2 85.69 -38.74 Q 84.7 -41.28 84.7 -45.14 L 84.7 -45.14 Q 84.7 -50.89 88.27 -54.04 Q 91.84 -57.19 99.06 -57.19 L 99.06 -57.19 Q 112.92 -57.19 112.92 -45.14 L 112.92 -45.14 L 112.92 -37.83 L 106.87 -37.83 L 106.87 -45.48 Q 106.87 -48.58 104.85 -50.31 Q 102.84 -52.03 98.79 -52.03 Q 94.73 -52.03 92.72 -50.31 Q 90.7 -48.58 90.7 -45.58 Q 90.7 -42.58 91.31 -40.86 Q 91.92 -39.14 93.98 -37.25 L 93.98 -37.25 L 109.39 -22.47 Q 111.87 -19.69 112.81 -17.15 Q 113.76 -14.61 113.76 -10.75 L 113.76 -10.75 Q 113.76 1.3 99.23 1.3 Q 84.7 1.3 84.7 -10.75 Z M 127.91 -9.91 L 127.91 -9.91 L 127.91 -55.89 L 146.85 -55.89 L 146.85 -50.73 L 133.91 -50.73 L 133.91 -9.53 Q 133.91 -7.14 135.17 -5.5 Q 136.43 -3.86 138.7 -3.86 Q 140.97 -3.86 142.19 -5.46 Q 143.4 -7.05 143.4 -9.53 L 143.4 -9.53 L 143.4 -19.78 L 149.41 -19.78 L 149.41 -9.91 Q 149.41 -4.49 146.53 -1.6 Q 143.66 1.3 138.74 1.3 Q 133.83 1.3 130.87 -1.57 Q 127.91 -4.45 127.91 -9.91 Z M 167.46 0 L 161.46 0 L 161.46 -55.89 L 167.46 -55.89 L 167.46 0 Z M 190.64 0 L 184.64 0 L 184.64 -55.89 L 187.2 -55.89 L 189.34 -50.31 Q 193.46 -57.19 200.81 -57.19 L 200.81 -57.19 Q 213.45 -57.19 213.45 -45.14 L 213.45 -45.14 L 213.45 0 L 207.44 0 L 207.44 -45.14 Q 207.44 -48.42 206.01 -50.22 Q 204.59 -52.03 200.81 -52.03 Q 197.03 -52.03 193.84 -49.11 Q 190.64 -46.19 190.64 -43.42 L 190.64 -43.42 L 190.64 0 Z M 228.48 -10.75 L 228.48 -10.75 L 228.48 -45.14 Q 228.48 -50.89 232.01 -54.04 Q 235.53 -57.19 242.59 -57.19 Q 249.64 -57.19 253.25 -54.04 Q 256.87 -50.89 256.87 -45.14 L 256.87 -45.14 L 256.87 -37 L 250.86 -37 L 250.86 -45.14 Q 250.86 -52.03 242.67 -52.03 Q 234.48 -52.03 234.48 -45.14 L 234.48 -45.14 L 234.48 -10.75 Q 234.48 -3.86 242.67 -3.86 Q 250.86 -3.86 250.86 -10.75 L 250.86 -10.75 L 250.86 -15.5 L 256.87 -15.5 L 256.87 -10.75 Q 256.87 -5 253.34 -1.85 Q 249.81 1.3 242.76 1.3 Q 235.7 1.3 232.09 -1.85 Q 228.48 -5 228.48 -10.75 Z M 270.6 -10.75 L 270.6 -10.75 L 270.6 -45.14 Q 270.6 -50.89 274.25 -54.04 Q 277.9 -57.19 285.17 -57.19 Q 292.43 -57.19 296.13 -54.04 Q 299.82 -50.89 299.82 -45.14 L 299.82 -45.14 L 299.82 -10.75 Q 299.82 -5 296.17 -1.85 Q 292.52 1.3 285.25 1.3 Q 277.99 1.3 274.29 -1.85 Q 270.6 -5 270.6 -10.75 Z M 276.6 -45.14 L 276.6 -10.75 Q 276.6 -3.86 285.21 -3.86 Q 293.82 -3.86 293.82 -10.75 L 293.82 -10.75 L 293.82 -45.14 Q 293.82 -52.03 285.21 -52.03 Q 276.6 -52.03 276.6 -45.14 L 276.6 -45.14 Z M 329.6 0 L 315.74 0 L 315.74 -55.89 L 329.6 -55.89 Q 336.32 -55.89 339.78 -52.72 Q 343.24 -49.55 343.24 -43.84 L 343.24 -43.84 L 343.24 -12.05 Q 343.24 -6.3 339.82 -3.15 Q 336.4 0 329.6 0 L 329.6 0 Z M 321.74 -50.73 L 321.74 -5.17 L 329.6 -5.17 Q 337.24 -5.17 337.24 -12.05 L 337.24 -12.05 L 337.24 -43.84 Q 337.24 -47.12 335.27 -48.92 Q 333.29 -50.73 329.6 -50.73 L 329.6 -50.73 L 321.74 -50.73 Z M 365.16 0 L 359.16 0 L 359.16 -55.89 L 365.16 -55.89 L 365.16 0 Z M 388.34 0 L 382.34 0 L 382.34 -55.89 L 384.9 -55.89 L 387.04 -50.31 Q 391.16 -57.19 398.51 -57.19 L 398.51 -57.19 Q 411.15 -57.19 411.15 -45.14 L 411.15 -45.14 L 411.15 0 L 405.14 0 L 405.14 -45.14 Q 405.14 -48.42 403.71 -50.22 Q 402.29 -52.03 398.51 -52.03 Q 394.73 -52.03 391.54 -49.11 Q 388.34 -46.19 388.34 -43.42 L 388.34 -43.42 L 388.34 0 Z M 426.18 -10.75 L 426.18 -10.75 L 426.18 -45.14 Q 426.18 -50.89 429.71 -54.04 Q 433.23 -57.19 440.29 -57.19 Q 447.34 -57.19 450.95 -54.04 Q 454.57 -50.89 454.57 -45.14 L 454.57 -45.14 L 454.57 -40.44 L 448.56 -40.44 L 448.56 -45.14 Q 448.56 -52.03 440.37 -52.03 Q 432.18 -52.03 432.18 -45.14 L 432.18 -45.14 L 432.18 -10.75 Q 432.18 -3.86 440.37 -3.86 Q 448.56 -3.86 448.56 -10.75 L 448.56 -10.75 L 448.56 -23.22 L 438.9 -23.22 L 438.9 -28.39 L 454.57 -28.39 L 454.57 -10.75 Q 454.57 -5 451.04 -1.85 Q 447.51 1.3 440.46 1.3 Q 433.4 1.3 429.79 -1.85 Q 426.18 -5 426.18 -10.75 Z" stroke-linecap="round" />
</g>
<g transform="matrix(1.9699870022450665 0 0 1.9699870022450665 649.999425621589 416.0943532657702)" id="tagline-3a0f327a-aafa-4e44-aa87-18cbd55f8865-logo-path"  >
<linearGradient id="SVGID_99_488497" gradientUnits="userSpaceOnUse" gradientTransform="matrix(1 0 0 1 0 -96.13)"  x1="0" y1="0" x2="0" y2="176">
<stop offset="0%" style="stop-color:rgb(113,23,234);stop-opacity: 1"/>
<stop offset="100%" style="stop-color:rgb(234,96,96);stop-opacity: 1"/>
</linearGradient>
<path style="stroke: rgb(255,255,255); stroke-width: 0; stroke-dasharray: none; stroke-linecap: butt; stroke-dashoffset: 0; stroke-linejoin: miter; stroke-miterlimit: 4; fill: url(#SVGID_99_488497); fill-rule: nonzero; opacity: 1;"  paint-order="stroke"  transform=" translate(-69.395, 23.120000000000005)" d="M 0 24.15 L 0 24.15 Q 0 10.44 9.67 -1.79 Q 19.35 -14.02 39.15 -26.96 L 39.15 -26.96 L 42.43 -76.25 Q 22.62 -72.82 22.62 -59.26 L 22.62 -59.26 Q 22.62 -55.38 20.99 -53.21 Q 19.35 -51.04 16.83 -51.04 L 16.83 -51.04 Q 16.76 -51.04 16.68 -51.04 L 16.68 -51.04 Q 12.19 -51.04 12.19 -56.29 L 12.19 -56.29 Q 12.19 -65.81 20.45 -72.21 Q 28.72 -78.61 42.88 -81.73 L 42.88 -81.73 Q 43.8 -88.28 48.18 -92.21 Q 52.56 -96.13 56.06 -96.13 Q 59.57 -96.13 61.7 -94.15 Q 63.83 -92.17 63.83 -88.89 L 63.83 -88.89 Q 63.83 -81.28 53.02 -78.3 L 53.02 -78.3 Q 50.65 -34.66 50.73 -33.52 L 50.73 -33.52 Q 55.38 -36.18 61.7 -38.62 Q 68.02 -41.06 70.69 -41.06 Q 73.35 -41.06 73.35 -39.91 L 73.35 -39.91 Q 73.35 -37.86 71.45 -37.25 L 71.45 -37.25 Q 61.32 -33.97 50.58 -27.42 L 50.58 -27.42 Q 49.36 5.64 48.98 12.19 L 48.98 12.19 Q 47.91 30.62 40.87 40.26 Q 33.82 49.89 21.4 49.89 L 21.4 49.89 Q 11.58 49.89 5.79 41.86 Q 0 33.82 0 24.15 Z M 15.92 39.91 L 15.92 39.91 Q 18.89 44.33 23.54 44.33 L 23.54 44.33 Q 34.13 44.33 36.03 20.72 L 36.03 20.72 Q 36.94 8.84 37.67 -2.82 Q 38.39 -14.47 38.7 -19.5 L 38.7 -19.5 Q 32.3 -15.01 28.41 -11.81 Q 24.53 -8.61 19.96 -3.73 L 19.96 -3.73 Q 11.43 5.87 11.43 19.42 L 11.43 19.42 Q 11.43 32.91 15.92 39.91 Z M 53.32 -83.79 L 53.32 -83.79 Q 58.96 -85.54 58.96 -88.28 L 58.96 -88.28 Q 58.96 -90.8 57.43 -90.8 L 57.43 -90.8 Q 54.01 -90.8 53.32 -83.79 Z M 64.67 -30.09 L 64.67 -30.09 Q 64.67 -57.21 78.8 -73.85 Q 92.93 -90.49 112.28 -90.49 L 112.28 -90.49 Q 119.59 -90.49 124.27 -86.19 Q 128.96 -81.88 128.96 -75.33 Q 128.96 -68.78 125.68 -63.18 Q 122.41 -57.59 117.8 -57.59 Q 113.19 -57.59 113.19 -60.02 L 113.19 -60.02 Q 113.19 -62.84 116.24 -66.46 Q 119.29 -70.08 119.29 -73.66 L 119.29 -73.66 Q 119.29 -84.7 107.52 -84.7 Q 95.75 -84.7 86.23 -68.94 Q 76.71 -53.17 76.71 -36.49 L 76.71 -36.49 Q 76.71 -24.91 83.26 -15.96 Q 89.81 -7.01 101.61 -7.01 L 101.61 -7.01 Q 115.71 -7.01 128.65 -25.75 L 128.65 -25.75 Q 129.72 -27.27 131.78 -31.23 L 131.78 -31.23 Q 136.8 -40.14 137.79 -40.14 Q 138.79 -40.14 138.79 -38.85 L 138.79 -38.85 Q 138.79 -31.23 130.79 -19.5 L 130.79 -19.5 Q 116.47 1.52 92.63 1.52 L 92.63 1.52 Q 85.92 1.52 80.29 -1.56 Q 74.65 -4.65 71.37 -9.52 L 71.37 -9.52 Q 64.67 -19.35 64.67 -30.09 Z" stroke-linecap="round" />
</g>
</svg>